<svg xmlns="http://www.w3.org/2000/svg" viewBox="0 0 160 160" role="img" aria-labelledby="t">
  <title id="t">Parrot Canada Visa Consultant</title>
  <defs>
    <linearGradient id="leaf" x1="0%" y1="0%" x2="100%" y2="100%">
      <stop offset="0%" stop-color="#4a8a3a"/>
      <stop offset="55%" stop-color="#427431"/>
      <stop offset="100%" stop-color="#2f5a26"/>
    </linearGradient>
    <linearGradient id="beak" x1="0%" y1="0%" x2="100%" y2="0%">
      <stop offset="0%" stop-color="#ff4d4f"/>
      <stop offset="100%" stop-color="#E21D1E"/>
    </linearGradient>
    <filter id="s" x="-20%" y="-20%" width="140%" height="140%">
      <feDropShadow dx="0" dy="4" stdDeviation="6" flood-opacity="0.25"/>
    </filter>
  </defs>
  <circle cx="80" cy="80" r="76" fill="url(#leaf)" filter="url(#s)"/>
  <!-- Stylized parrot silhouette -->
  <path fill="#fff" opacity="0.95" d="M48 92c0-18 14-32 32-36 8-14 22-24 38-26-4 10-4 22 2 32 10 4 20 12 26 22-8 6-18 10-28 10-6 0-12-1-17-3-4 10-13 17-24 17-16 0-29-13-29-29z"/>
  <path fill="url(#beak)" d="M96 58c10 2 18 8 24 16-6 2-12 3-18 2-4-6-6-12-6-18z"/>
  <circle cx="72" cy="78" r="5" fill="#1a3d14"/>
</svg>
